<?xml version="1.0" encoding="utf-8"?>
<svg fill="#000000" width="1em" height="1em" viewBox="-3.94 0 122.88 122.88" version="1.1" id="Layer_1" style="enable-background:new 0 0 115 122.88" xmlns="http://www.w3.org/2000/svg">
  <defs/>
  <g style="" transform="matrix(1, 0, 0, 0.961205, 2.105825, 11.654533)">
    <path d="M 32.613 69.346 C 29.682 66.27 26.649 63.072 24.247 58.367 C 21.897 53.729 20.593 48.94 20.635 43.964 C 20.686 38.99 22.06 33.864 25.051 28.572 C 25.071 28.534 25.092 28.507 25.112 28.468 C 29.029 22.371 34.515 18.294 40.622 16.012 C 45.739 14.085 51.305 13.43 56.761 13.889 C 62.194 14.347 67.517 15.918 72.168 18.444 C 78.08 21.661 82.945 26.43 85.62 32.453 C 87.066 35.716 88.043 39.354 88.164 43.338 C 88.287 47.313 87.544 51.597 85.55 56.122 C 82.497 63.072 75.363 70.516 70.692 77.352 C 70.438 77.306 70.173 77.295 69.909 77.334 L 63.609 78.194 L 73.206 47.518 C 73.48 46.65 72.92 45.741 71.975 45.489 C 71.027 45.247 70.04 45.752 69.766 46.621 L 59.722 78.737 L 50.197 80.037 L 40.132 50.632 C 40.855 50.765 41.618 50.474 42.014 49.856 L 49.149 38.7 L 52.782 46.36 C 53.18 47.191 54.227 47.566 55.122 47.211 C 55.569 47.033 55.896 46.696 56.069 46.312 L 59.284 38.85 L 63.049 47.977 C 63.396 48.828 64.424 49.249 65.35 48.931 C 66.275 48.613 66.733 47.668 66.388 46.817 L 61.025 33.819 C 60.872 33.359 60.495 32.968 59.975 32.78 C 59.061 32.444 58.022 32.865 57.656 33.706 L 54.328 41.44 L 51.011 34.445 C 50.868 34.136 50.613 33.864 50.278 33.686 C 49.433 33.229 48.334 33.491 47.846 34.267 L 39.176 47.828 L 38.556 46.023 C 38.259 45.162 37.262 44.676 36.327 44.948 C 35.39 45.218 34.861 46.135 35.156 46.995 L 46.625 80.523 L 39.725 81.467 C 38.056 76.931 35.513 72.404 32.613 69.346 Z M 68.28 81.86 L 67.64 84.618 L 67.476 86.583 L 41.7 90.108 C 41.607 88.696 41.363 87.172 40.976 85.591 L 68.28 81.86 Z M 67.425 90.885 L 67.446 92.073 L 67.476 92.484 C 67.548 93.26 67.557 94.045 67.507 94.821 L 67.12 96.534 L 43.175 99.806 L 42.758 98.927 L 41.821 95.411 L 41.801 94.391 L 67.425 90.885 Z M 65.542 101.041 C 64.301 102.995 62.591 104.519 60.638 105.559 C 58.897 106.493 56.955 107.026 55.01 107.138 C 53.036 107.251 51.041 106.904 49.22 106.1 C 47.978 105.539 46.818 104.763 45.791 103.753 L 65.542 101.041 Z" style=""/>
  </g>
</svg>