<?xml version="1.0" standalone="no"?>
<!DOCTYPE svg PUBLIC "-//W3C//DTD SVG 20010904//EN"
 "http://www.w3.org/TR/2001/REC-SVG-20010904/DTD/svg10.dtd">
<svg version="1.0" xmlns="http://www.w3.org/2000/svg"
 width="1000.000000pt" height="1000.000000pt" viewBox="0 0 1000.000000 1000.000000"
 preserveAspectRatio="xMidYMid meet">

<g transform="translate(0.000000,1000.000000) scale(0.100000,-0.100000)"
fill="#000000" stroke="none">
<path d="M4755 8993 c-479 -40 -850 -124 -1248 -282 -663 -264 -1271 -730
-1703 -1308 -501 -669 -776 -1451 -801 -2278 -29 -979 289 -1910 913 -2674
119 -146 423 -444 574 -565 950 -757 2134 -1042 3325 -801 767 156 1499 557
2045 1121 903 933 1297 2203 1079 3479 -114 672 -418 1333 -854 1858 -778 937
-1911 1467 -3115 1455 -96 -1 -193 -3 -215 -5z m1823 -2481 c-156 -125 -574
-461 -930 -746 l-648 -518 -822 658 c-453 362 -872 697 -931 746 l-108 88
1861 0 1862 0 -284 -228z m-2687 -873 c548 -438 1010 -804 1027 -813 38 -20
111 -21 156 -2 18 8 487 377 1042 821 l1009 807 3 -1526 c2 -1508 2 -1527 -18
-1566 -11 -21 -36 -51 -57 -67 l-36 -28 -2018 0 -2017 0 -38 30 c-20 17 -45
46 -55 65 -18 33 -19 94 -19 1563 0 1220 3 1527 13 1521 6 -5 460 -367 1008
-805z"/>
</g>
</svg>
