<?xml version="1.0" standalone="no"?>
<!DOCTYPE svg PUBLIC "-//W3C//DTD SVG 20010904//EN"
 "http://www.w3.org/TR/2001/REC-SVG-20010904/DTD/svg10.dtd">
<svg version="1.0" xmlns="http://www.w3.org/2000/svg"
 width="500.000000pt" height="500.000000pt" viewBox="0 0 500.000000 500.000000"
 preserveAspectRatio="xMidYMid meet">

<g transform="translate(0.000000,500.000000) scale(0.100000,-0.100000)"
fill="#000000" stroke="none">
<path d="M2431 4479 c-48 -15 -96 -47 -186 -128 -43 -39 -88 -71 -100 -72 -39
-2 -81 3 -140 17 -33 7 -96 14 -141 14 -72 0 -85 -3 -126 -29 -57 -37 -88 -87
-129 -216 -20 -64 -42 -109 -58 -126 -17 -16 -63 -38 -126 -58 -136 -45 -200
-87 -231 -154 -29 -63 -30 -113 -4 -231 34 -154 32 -162 -71 -273 -77 -84
-109 -140 -116 -206 -8 -76 23 -138 125 -256 94 -108 95 -109 62 -262 -32
-152 -24 -212 37 -280 42 -47 80 -67 178 -98 110 -35 145 -53 160 -81 12 -24
-5 -69 -271 -715 -157 -380 -287 -700 -290 -713 -13 -47 32 -102 82 -102 8 0
158 72 334 160 l320 160 240 -160 c144 -95 251 -160 265 -160 49 0 70 36 160
280 48 129 90 238 94 242 4 4 44 -105 89 -241 46 -137 90 -255 99 -262 8 -8
32 -13 52 -13 30 0 77 27 270 156 l234 156 319 -159 c175 -87 330 -159 344
-159 35 0 74 42 74 79 0 17 -128 340 -285 722 -157 381 -285 699 -285 708 0
32 45 61 152 97 239 79 278 149 227 405 -12 58 -19 117 -16 131 4 14 40 63 82
109 41 46 86 106 100 133 51 101 26 199 -81 316 -115 127 -116 129 -84 270 55
240 -2 334 -245 405 -118 34 -129 47 -180 209 -32 100 -72 160 -130 194 -37
21 -48 23 -140 18 -55 -3 -131 -12 -170 -19 -43 -9 -80 -10 -95 -5 -14 5 -60
40 -102 78 -43 38 -97 80 -122 95 -50 29 -124 39 -175 24z m121 -186 c18 -15
60 -52 93 -82 72 -65 144 -101 205 -101 25 0 95 10 155 21 61 12 122 19 137
16 28 -7 48 -46 88 -172 27 -88 40 -112 81 -153 41 -41 80 -61 189 -97 128
-42 140 -51 140 -103 0 -24 -9 -90 -21 -145 -32 -158 -16 -213 100 -342 121
-134 121 -139 21 -251 -135 -150 -154 -206 -121 -365 11 -57 21 -123 21 -146
0 -53 -12 -62 -149 -107 -173 -58 -215 -100 -272 -275 -36 -111 -51 -139 -82
-146 -12 -3 -66 3 -121 15 -123 25 -208 26 -262 1 -22 -10 -73 -47 -113 -82
-105 -92 -136 -112 -163 -106 -13 4 -61 40 -108 82 -147 132 -203 147 -405
104 -55 -11 -109 -18 -122 -14 -27 6 -52 53 -83 155 -50 168 -97 213 -290 274
-47 15 -95 34 -107 42 -29 18 -30 59 -3 180 35 157 23 221 -60 320 -163 194
-160 176 -49 304 131 152 146 202 110 374 -26 121 -26 158 -3 179 9 8 66 32
126 52 185 62 218 95 281 285 20 59 44 115 54 124 23 21 47 20 172 -5 175 -36
227 -22 362 95 124 109 142 115 199 69z"/>
<path d="M2330 3979 c-92 -16 -191 -49 -275 -91 -269 -135 -446 -354 -531
-658 -29 -102 -27 -366 4 -480 97 -358 378 -633 738 -722 133 -32 333 -30 465
5 182 48 332 133 457 260 96 97 145 164 198 273 67 137 96 260 97 419 2 281
-92 514 -288 710 -131 132 -281 218 -463 266 -89 24 -314 34 -402 18z"/>
</g>
</svg>
