<?xml version="1.0" standalone="no"?>
<!DOCTYPE svg PUBLIC "-//W3C//DTD SVG 20010904//EN"
 "http://www.w3.org/TR/2001/REC-SVG-20010904/DTD/svg10.dtd">
<svg version="1.0" xmlns="http://www.w3.org/2000/svg"
 width="512.000000pt" height="511.000000pt" viewBox="0 0 512.000000 511.000000"
 preserveAspectRatio="xMidYMid meet">

<g transform="translate(0.000000,511.000000) scale(0.100000,-0.100000)"
fill="#000000" stroke="none">
<path d="M2285 5071 c-96 -8 -129 -14 -300 -56 -60 -15 -127 -30 -148 -35 -21
-4 -53 -14 -70 -22 -18 -9 -57 -23 -87 -33 -83 -26 -257 -107 -386 -179 -87
-49 -142 -86 -237 -159 -34 -26 -87 -66 -117 -89 -136 -102 -437 -443 -501
-566 -8 -15 -30 -52 -50 -82 -61 -95 -192 -371 -220 -465 -6 -22 -15 -47 -19
-56 -5 -9 -13 -36 -19 -60 -6 -24 -18 -66 -26 -94 -7 -27 -19 -75 -24 -105 -6
-30 -18 -95 -28 -145 -15 -74 -18 -142 -18 -380 0 -264 2 -301 24 -415 13 -69
27 -145 31 -170 4 -25 12 -58 18 -75 27 -82 45 -135 62 -190 18 -61 37 -108
70 -180 10 -22 25 -56 34 -75 9 -19 20 -43 26 -52 18 -32 29 -53 47 -88 29
-59 155 -250 164 -250 5 0 9 -4 9 -10 0 -37 312 -369 450 -479 36 -28 70 -56
77 -61 37 -30 237 -160 246 -160 6 0 18 -6 26 -14 48 -41 331 -167 440 -196
19 -5 48 -15 65 -24 17 -8 58 -20 91 -26 33 -7 83 -19 110 -27 28 -8 82 -18
120 -23 39 -5 93 -13 120 -19 65 -13 546 -13 605 0 25 5 77 14 115 19 39 5 93
15 120 23 28 8 77 20 110 27 33 6 74 18 90 25 17 8 50 19 75 26 25 6 50 14 55
18 6 4 30 14 55 21 25 8 61 21 80 31 19 10 80 39 135 65 55 27 111 56 125 65
14 9 72 47 130 85 86 57 192 136 280 209 37 32 229 227 265 270 54 66 175 225
175 230 0 3 16 29 34 58 33 52 78 129 99 172 6 11 14 27 18 35 15 27 66 134
84 175 28 65 113 330 120 372 3 21 12 63 20 93 7 30 24 129 36 220 32 244 19
541 -36 790 -8 36 -17 83 -20 105 -6 37 -84 286 -104 330 -86 194 -163 348
-188 373 -7 7 -13 18 -13 23 0 6 -10 25 -23 42 -12 18 -27 40 -32 49 -6 9 -50
70 -99 135 -96 126 -294 331 -389 404 -32 24 -77 59 -100 77 -64 50 -127 92
-138 92 -5 0 -9 4 -9 9 0 5 -21 20 -47 33 -27 13 -66 35 -88 49 -56 36 -236
120 -335 156 -139 52 -343 110 -430 123 -36 6 -83 15 -105 20 -51 13 -530 21
-650 11z m-294 -1121 c28 -38 55 -70 60 -70 5 0 9 -7 9 -16 0 -9 6 -22 14 -28
13 -11 206 -265 236 -311 8 -13 36 -50 63 -84 26 -34 47 -65 47 -71 0 -5 6
-13 13 -17 6 -4 24 -26 39 -48 15 -22 38 -52 50 -67 13 -15 63 -81 112 -147
49 -67 95 -121 102 -121 7 0 18 9 24 20 6 11 17 20 25 20 8 0 15 5 15 11 0 7
15 26 33 44 17 18 73 77 122 131 50 54 106 115 125 135 19 21 64 70 100 109
36 40 92 100 125 134 33 33 89 94 125 135 36 41 81 91 100 112 19 20 70 73
112 118 l77 81 135 0 c75 0 136 -4 136 -8 0 -5 -19 -29 -42 -53 -23 -24 -92
-98 -152 -164 -61 -66 -142 -153 -180 -194 -99 -103 -125 -131 -175 -187 -73
-83 -202 -223 -279 -303 -41 -42 -101 -107 -134 -146 -33 -38 -83 -93 -109
-122 -27 -28 -49 -54 -49 -58 0 -8 66 -100 92 -129 10 -11 18 -23 18 -28 0 -7
8 -17 55 -69 8 -9 15 -21 15 -27 0 -7 5 -12 10 -12 6 0 10 -7 10 -15 0 -8 4
-15 10 -15 5 0 16 -12 24 -27 8 -16 25 -40 38 -55 13 -14 30 -36 38 -49 8 -12
23 -31 33 -41 9 -10 17 -20 17 -23 0 -3 53 -76 118 -163 65 -86 127 -169 138
-183 10 -14 38 -51 62 -82 23 -31 42 -61 42 -67 0 -6 7 -13 15 -16 8 -3 24
-21 36 -40 11 -19 26 -40 33 -47 7 -6 30 -37 51 -67 37 -52 48 -67 71 -93 6
-7 19 -25 29 -42 26 -40 116 -158 130 -170 7 -5 19 -23 29 -40 9 -16 48 -70
86 -120 39 -49 70 -93 70 -97 0 -5 -209 -8 -465 -8 l-466 0 -24 25 c-14 13
-25 28 -25 32 0 4 -14 24 -31 43 -17 19 -39 46 -47 60 -13 20 -107 147 -145
195 -4 6 -24 33 -44 60 -21 28 -43 57 -50 65 -27 34 -289 387 -304 410 -9 14
-29 39 -43 55 -15 17 -34 42 -42 58 -8 15 -18 27 -22 27 -4 0 -13 12 -20 28
-7 15 -26 43 -43 62 l-30 35 -85 -90 c-47 -49 -131 -139 -187 -199 -56 -60
-108 -115 -116 -123 -7 -8 -29 -33 -48 -56 -34 -40 -235 -256 -299 -321 -17
-17 -71 -76 -119 -131 -49 -55 -100 -112 -114 -126 -14 -15 -43 -45 -64 -68
l-38 -41 -140 0 c-77 0 -139 4 -139 9 0 5 3 11 8 13 7 3 75 75 223 238 149
163 336 365 404 436 22 23 58 63 80 89 22 26 58 66 80 88 22 23 86 92 141 152
56 61 140 150 188 200 47 49 86 95 86 101 0 14 -56 97 -125 184 -28 36 -66 85
-84 110 -17 25 -51 70 -74 101 -118 157 -201 267 -225 298 -15 19 -30 41 -33
50 -4 9 -20 31 -35 48 -16 18 -40 49 -54 69 -14 20 -35 47 -47 61 -13 13 -23
26 -23 29 0 3 -66 94 -147 201 -82 108 -181 239 -220 292 -40 53 -77 106 -83
119 -5 12 -13 22 -18 22 -5 0 -14 11 -20 25 l-12 25 470 0 470 0 51 -70z"/>
<path d="M1420 3800 c0 -5 12 -24 28 -42 57 -69 192 -248 224 -299 9 -14 23
-32 30 -40 8 -8 37 -45 65 -84 29 -38 56 -74 60 -80 5 -5 19 -25 32 -43 13
-19 34 -45 47 -59 13 -14 24 -31 24 -37 0 -6 15 -28 33 -48 17 -20 70 -89 117
-152 47 -64 88 -116 93 -116 4 0 7 -4 7 -10 0 -5 28 -47 63 -92 34 -45 69 -92
77 -104 8 -12 52 -71 97 -130 45 -60 101 -135 125 -167 24 -32 51 -65 61 -75
9 -9 17 -22 17 -28 0 -7 4 -14 9 -16 4 -1 20 -22 35 -45 14 -24 31 -43 36 -43
6 0 10 -5 10 -10 0 -14 72 -110 82 -110 4 0 8 -4 8 -10 0 -5 61 -90 135 -189
74 -98 135 -183 135 -189 0 -5 6 -12 13 -15 6 -2 30 -31 52 -63 22 -32 52 -72
68 -88 15 -17 27 -35 27 -41 0 -5 20 -31 43 -57 l43 -48 196 0 c108 0 199 4
202 8 5 8 -15 42 -41 73 -69 78 -83 96 -83 106 0 7 -6 16 -13 20 -7 4 -28 31
-46 58 -18 28 -40 54 -47 58 -8 4 -14 13 -14 19 0 6 -40 64 -90 129 -49 64
-90 122 -90 128 0 6 -4 11 -9 11 -4 0 -35 36 -67 81 -32 44 -80 108 -106 141
-27 33 -48 64 -48 68 0 4 -12 20 -26 35 -29 31 -70 86 -136 180 -23 33 -53 74
-67 92 -14 17 -46 59 -71 93 -25 34 -55 73 -67 86 -13 14 -23 27 -23 30 0 3
-26 39 -57 81 -32 41 -65 84 -73 96 -8 12 -38 51 -66 87 -28 36 -56 75 -63 88
-7 13 -20 31 -29 40 -10 10 -53 67 -97 127 -44 61 -85 114 -92 118 -7 4 -13
12 -13 18 0 5 -5 15 -10 22 -6 7 -33 41 -60 77 -27 36 -58 75 -69 88 -12 12
-21 25 -21 28 0 3 -19 30 -42 61 -24 31 -56 75 -73 98 -16 23 -40 54 -51 68
l-22 27 -206 0 c-126 0 -206 -4 -206 -10z"/>
</g>
</svg>
